<svg data-v-423bf9ae="" xmlns="http://www.w3.org/2000/svg" viewBox="0 0 116.41874519222011 60" class="font"><!----><!----><!----><g data-v-423bf9ae="" id="f2da3121-25ed-4eea-bc76-de791bf93804" fill="#488eff" transform="matrix(5.509642182077017,0,0,5.509642182077017,-0.7713503271647753,-34.380165955103564)"><path d="M12.88 15.55L12.88 15.55L12.88 15.55Q12.36 15.99 11.96 16.24L11.96 16.24L11.96 16.24Q11.56 16.48 11.27 16.60L11.27 16.60L11.27 16.60Q10.94 16.75 10.70 16.78L10.70 16.78L10.70 16.78Q10.36 16.86 9.94 16.76L9.94 16.76L9.94 16.76Q9.53 16.66 9.07 16.43L9.07 16.43L9.07 16.43Q8.62 16.21 8.15 15.88L8.15 15.88L8.15 15.88Q7.68 15.55 7.22 15.18L7.22 15.18L7.22 15.18Q6.76 14.81 6.33 14.41L6.33 14.41L6.33 14.41Q5.91 14.01 5.55 13.65L5.55 13.65L5.55 13.65Q5.19 13.29 4.91 12.98L4.91 12.98L4.91 12.98Q4.63 12.68 4.48 12.48L4.48 12.48L4.48 12.48Q4.34 12.31 4.26 12.20L4.26 12.20L4.26 12.20Q4.18 12.09 4.18 11.98L4.18 11.98L4.18 11.98Q4.18 11.87 4.28 11.74L4.28 11.74L4.28 11.74Q4.38 11.61 4.61 11.39L4.61 11.39L4.61 11.39Q4.73 11.27 4.93 11.08L4.93 11.08L4.93 11.08Q5.13 10.88 5.37 10.64L5.37 10.64L5.37 10.64Q5.61 10.39 5.88 10.11L5.88 10.11L5.88 10.11Q6.15 9.82 6.42 9.53L6.42 9.53L6.42 9.53Q6.68 9.24 6.92 8.94L6.92 8.94L6.92 8.94Q7.16 8.65 7.35 8.38L7.35 8.38L7.35 8.38Q7.53 8.12 7.64 7.91L7.64 7.91L7.64 7.91Q7.75 7.69 7.75 7.54L7.75 7.54L7.75 7.54Q7.75 7.34 7.32 7.34L7.32 7.34L7.32 7.34Q7.16 7.34 7.01 7.33L7.01 7.33L7.01 7.33Q6.88 7.33 6.74 7.33L6.74 7.33L6.74 7.33Q6.61 7.33 6.54 7.34L6.54 7.34L6.54 7.34Q6.89 7.14 7.20 6.96L7.20 6.96L7.20 6.96Q7.51 6.77 7.81 6.64L7.81 6.64L7.81 6.64Q8.11 6.51 8.41 6.43L8.41 6.43L8.41 6.43Q8.71 6.35 9.04 6.35L9.04 6.35L9.04 6.35Q9.19 6.35 9.35 6.36L9.35 6.36L9.35 6.36Q9.50 6.37 9.67 6.41L9.67 6.41L9.67 6.41Q9.36 6.96 9.03 7.41L9.03 7.41L9.03 7.41Q8.71 7.85 8.38 8.23L8.38 8.23L8.38 8.23Q8.06 8.61 7.74 8.92L7.74 8.92L7.74 8.92Q7.42 9.24 7.12 9.52L7.12 9.52L7.12 9.52Q6.81 9.80 6.52 10.07L6.52 10.07L6.52 10.07Q6.23 10.34 5.97 10.62L5.97 10.62L5.97 10.62Q5.85 10.75 5.87 10.92L5.87 10.92L5.87 10.92Q5.89 11.09 6.12 11.35L6.12 11.35L6.12 11.35Q6.48 11.75 6.92 12.23L6.92 12.23L6.92 12.23Q7.36 12.70 7.86 13.18L7.86 13.18L7.86 13.18Q8.37 13.66 8.92 14.11L8.92 14.11L8.92 14.11Q9.47 14.56 10.04 14.91L10.04 14.91L10.04 14.91Q10.62 15.26 11.21 15.47L11.21 15.47L11.21 15.47Q11.80 15.67 12.39 15.67L12.39 15.67L12.39 15.67Q12.69 15.67 12.88 15.55ZM5.70 15.46L5.70 15.46L5.70 15.46Q5.30 15.74 4.91 15.97L4.91 15.97L4.91 15.97Q4.52 16.20 4.16 16.38L4.16 16.38L4.16 16.38Q3.80 16.55 3.48 16.66L3.48 16.66L3.48 16.66Q3.17 16.77 2.90 16.80L2.90 16.80L2.90 16.80Q2.63 16.82 2.43 16.81L2.43 16.81L2.43 16.81Q2.22 16.80 2.09 16.71L2.09 16.71L2.09 16.71Q1.96 16.63 1.89 16.44L1.89 16.44L1.89 16.44Q1.82 16.25 1.82 15.91L1.82 15.91L1.82 15.91Q1.82 15.74 1.82 15.32L1.82 15.32L1.82 15.32Q1.83 14.90 1.83 14.31L1.83 14.31L1.83 14.31Q1.83 13.73 1.84 13.03L1.84 13.03L1.84 13.03Q1.85 12.34 1.85 11.63L1.85 11.63L1.85 11.63Q1.86 10.92 1.87 10.24L1.87 10.24L1.87 10.24Q1.87 9.56 1.88 9.00L1.88 9.00L1.88 9.00Q1.89 8.45 1.89 8.07L1.89 8.07L1.89 8.07Q1.90 7.69 1.91 7.58L1.91 7.58L1.91 7.58Q1.91 7.46 1.86 7.38L1.86 7.38L1.86 7.38Q1.80 7.29 1.70 7.24L1.70 7.24L1.70 7.24Q1.60 7.19 1.46 7.17L1.46 7.17L1.46 7.17Q1.33 7.15 1.18 7.15L1.18 7.15L1.18 7.15Q0.94 7.15 0.66 7.19L0.66 7.19L0.66 7.19Q0.38 7.24 0.14 7.30L0.14 7.30L0.14 7.30Q0.48 7.08 0.82 6.89L0.82 6.89L0.82 6.89Q1.16 6.69 1.50 6.55L1.50 6.55L1.50 6.55Q1.84 6.41 2.19 6.32L2.19 6.32L2.19 6.32Q2.55 6.24 2.93 6.24L2.93 6.24L2.93 6.24Q3.08 6.24 3.21 6.26L3.21 6.26L3.21 6.26Q3.35 6.28 3.46 6.31L3.46 6.31L3.46 6.31Q3.56 6.35 3.62 6.42L3.62 6.42L3.62 6.42Q3.68 6.48 3.68 6.58L3.68 6.58L3.68 6.58Q3.68 6.84 3.68 7.86L3.68 7.86L3.68 7.86Q3.68 8.30 3.67 8.95L3.67 8.95L3.67 8.95Q3.67 9.60 3.67 10.52L3.67 10.52L3.67 10.52Q3.66 11.44 3.66 12.65L3.66 12.65L3.66 12.65Q3.66 13.86 3.66 15.44L3.66 15.44L3.66 15.44Q4.01 15.50 4.31 15.52L4.31 15.52L4.31 15.52Q4.61 15.55 4.85 15.55L4.85 15.55L4.85 15.55Q5.06 15.55 5.22 15.54L5.22 15.54L5.22 15.54Q5.37 15.52 5.48 15.51L5.48 15.51L5.48 15.51Q5.61 15.49 5.70 15.46ZM17.49 15.76L17.49 15.76L17.49 15.76Q17.21 15.98 16.87 16.23L16.87 16.23L16.87 16.23Q16.52 16.47 16.13 16.67L16.13 16.67L16.13 16.67Q15.74 16.87 15.32 17.00L15.32 17.00L15.32 17.00Q14.89 17.13 14.45 17.13L14.45 17.13L14.45 17.13Q14.32 17.13 14.19 17.10L14.19 17.10L14.19 17.10Q14.05 17.06 13.95 16.98L13.95 16.98L13.95 16.98Q13.85 16.89 13.78 16.75L13.78 16.75L13.78 16.75Q13.72 16.60 13.73 16.39L13.73 16.39L13.73 16.39Q13.73 16.14 13.76 15.12L13.76 15.12L13.76 15.12Q13.77 14.69 13.78 14.05L13.78 14.05L13.78 14.05Q13.80 13.41 13.83 12.50L13.83 12.50L13.83 12.50Q13.85 11.59 13.88 10.38L13.88 10.38L13.88 10.38Q13.92 9.18 13.96 7.62L13.96 7.62L13.96 7.62Q13.51 7.68 13.07 7.72L13.07 7.72L13.07 7.72Q12.64 7.77 12.24 7.81L12.24 7.81L13.99 6.52L13.99 6.52Q14.24 6.56 14.52 6.58L14.52 6.58L14.52 6.58Q14.81 6.59 15.08 6.59L15.08 6.59L15.08 6.59Q15.48 6.59 15.87 6.56L15.87 6.56L15.87 6.56Q16.25 6.54 16.61 6.50L16.61 6.50L16.61 6.50Q16.98 6.46 17.34 6.43L17.34 6.43L17.34 6.43Q17.70 6.41 18.06 6.41L18.06 6.41L18.06 6.41Q18.65 6.41 19.22 6.55L19.22 6.55L19.22 6.55Q19.80 6.70 20.25 7.00L20.25 7.00L20.25 7.00Q20.71 7.31 20.99 7.78L20.99 7.78L20.99 7.78Q21.27 8.24 21.27 8.89L21.27 8.89L21.27 8.89Q21.27 9.37 21.07 9.86L21.07 9.86L21.07 9.86Q20.88 10.35 20.55 10.81L20.55 10.81L20.55 10.81Q20.21 11.27 19.78 11.67L19.78 11.67L19.78 11.67Q19.34 12.07 18.86 12.37L18.86 12.37L18.86 12.37Q18.38 12.67 17.88 12.86L17.88 12.86L17.88 12.86Q17.38 13.04 16.93 13.06L16.93 13.06L16.72 12.92L16.72 12.92Q17.32 12.78 17.82 12.50L17.82 12.50L17.82 12.50Q18.33 12.21 18.70 11.80L18.70 11.80L18.70 11.80Q19.07 11.40 19.27 10.88L19.27 10.88L19.27 10.88Q19.48 10.36 19.48 9.77L19.48 9.77L19.48 9.77Q19.48 9.35 19.35 9.02L19.35 9.02L19.35 9.02Q19.23 8.68 19.01 8.42L19.01 8.42L19.01 8.42Q18.79 8.16 18.50 7.97L18.50 7.97L18.50 7.97Q18.21 7.79 17.88 7.67L17.88 7.67L17.88 7.67Q17.54 7.55 17.18 7.49L17.18 7.49L17.18 7.49Q16.82 7.43 16.47 7.43L16.47 7.43L16.47 7.43Q16.27 7.43 16.07 7.44L16.07 7.44L16.07 7.44Q15.87 7.44 15.67 7.46L15.67 7.46L15.40 15.76L15.40 15.76Q15.56 15.87 15.78 15.92L15.78 15.92L15.78 15.92Q16.00 15.97 16.23 15.97L16.23 15.97L16.23 15.97Q16.46 15.97 16.69 15.94L16.69 15.94L16.69 15.94Q16.91 15.91 17.09 15.87L17.09 15.87L17.09 15.87Q17.30 15.82 17.49 15.76Z"></path></g><!----><!----></svg>