<?xml version="1.0" encoding="utf-8"?>
<!-- Generator: Adobe Illustrator 16.0.0, SVG Export Plug-In . SVG Version: 6.00 Build 0)  -->
<!DOCTYPE svg PUBLIC "-//W3C//DTD SVG 1.1//EN" "http://www.w3.org/Graphics/SVG/1.1/DTD/svg11.dtd">
<svg version="1.1" id="Layer_1" xmlns="http://www.w3.org/2000/svg" xmlns:xlink="http://www.w3.org/1999/xlink" x="0px" y="0px"
	 width="50px" height="50px" viewBox="0 0 50 50" enable-background="new 0 0 50 50" xml:space="preserve">
<g>
	<path fill="#BF973F" d="M6.294,43.281c0.093,0.055,0.199,0.084,0.308,0.084c0.093,0,0.185-0.023,0.268-0.064l12.095-6.256
		l11.694,6.252c0.166,0.088,0.365,0.09,0.532,0.004l12.479-6.393c0.195-0.096,0.322-0.293,0.33-0.51V7.207
		c-0.009-0.202-0.119-0.386-0.293-0.489c-0.175-0.103-0.389-0.11-0.57-0.021l-12.199,6.257L19.24,6.799
		c-0.165-0.087-0.362-0.088-0.528-0.003L6.333,13.089C6.136,13.185,6.008,13.381,6,13.6v29.191
		C6.007,42.994,6.118,43.18,6.294,43.281z M30.323,41.805l-10.81-5.754V8.251l10.81,5.665V41.805z M42.854,36.049L31.47,41.881
		V13.979l11.384-5.833V36.049z M7.146,13.952l11.22-5.706v27.809L7.146,41.85V13.952z"/>
	<path fill="#BF973F" d="M33.759,19.832c0.091,0,0.181-0.021,0.262-0.063l6.956-3.569c0.184-0.092,0.304-0.276,0.315-0.482
		c0.011-0.206-0.09-0.401-0.264-0.513c-0.173-0.111-0.393-0.121-0.575-0.025l-6.956,3.569c-0.235,0.121-0.358,0.387-0.296,0.645
		C33.264,19.65,33.494,19.832,33.759,19.832z"/>
	<path fill="#BF973F" d="M33.759,23.873c0.091,0,0.181-0.021,0.262-0.063l6.956-3.569c0.184-0.093,0.304-0.276,0.315-0.482
		c0.011-0.206-0.09-0.401-0.264-0.513c-0.173-0.111-0.393-0.121-0.575-0.025l-6.956,3.569c-0.235,0.121-0.358,0.387-0.296,0.645
		C33.264,23.692,33.494,23.874,33.759,23.873z"/>
	<path fill="#BF973F" d="M40.453,23.262l-6.956,3.568c-0.184,0.094-0.303,0.277-0.313,0.482c-0.011,0.205,0.089,0.4,0.262,0.512
		s0.392,0.121,0.574,0.027l6.956-3.57c0.184-0.092,0.304-0.276,0.315-0.482c0.011-0.206-0.09-0.401-0.264-0.513
		C40.855,23.176,40.636,23.166,40.453,23.262z"/>
	<path fill="#BF973F" d="M15.93,24.959l-6.956,3.568c-0.183,0.094-0.302,0.277-0.313,0.482c-0.01,0.205,0.09,0.4,0.263,0.512
		c0.172,0.111,0.392,0.121,0.574,0.027l6.956-3.57c0.183-0.093,0.303-0.276,0.313-0.481s-0.09-0.399-0.262-0.511
		C16.332,24.875,16.113,24.865,15.93,24.959z"/>
	<path fill="#BF973F" d="M15.93,29l-6.956,3.568c-0.183,0.094-0.302,0.277-0.313,0.482c-0.01,0.205,0.09,0.4,0.263,0.512
		c0.172,0.111,0.392,0.121,0.574,0.027l6.956-3.57c0.183-0.092,0.303-0.275,0.313-0.48s-0.09-0.4-0.262-0.512
		C16.332,28.916,16.113,28.906,15.93,29z"/>
	<path fill="#BF973F" d="M28.483,22.952l-6.433-3.386c-0.28-0.144-0.624-0.036-0.77,0.243s-0.041,0.623,0.236,0.772l6.434,3.385
		c0.181,0.098,0.4,0.09,0.575-0.019s0.277-0.304,0.269-0.51S28.667,23.046,28.483,22.952z"/>
	<path fill="#BF973F" d="M21.516,15.731l6.434,3.386c0.181,0.098,0.4,0.09,0.575-0.019s0.277-0.304,0.269-0.51
		c-0.009-0.206-0.127-0.391-0.311-0.485l-6.433-3.386c-0.28-0.147-0.627-0.04-0.774,0.24C21.128,15.237,21.236,15.583,21.516,15.731
		z"/>
	<path fill="#BF973F" d="M16.473,13.664c-0.167-0.104-0.377-0.112-0.552-0.021L8.99,17.212c-0.186,0.101-0.297,0.299-0.287,0.51
		v4.85c-0.008,0.196,0.089,0.383,0.254,0.489c0.086,0.055,0.187,0.084,0.289,0.084c0.089,0,0.177-0.022,0.256-0.063l6.935-3.569
		c0.187-0.101,0.299-0.298,0.291-0.51v-4.85C16.735,13.957,16.638,13.771,16.473,13.664z M15.582,18.653l-5.733,2.98v-3.561
		l5.733-2.981V18.653z"/>
	<path fill="#BF973F" d="M28.473,28.609l-6.428-3.385c-0.172-0.093-0.382-0.087-0.548,0.017c-0.168,0.105-0.269,0.292-0.263,0.49
		v5.658c-0.005,0.211,0.109,0.406,0.295,0.508l6.427,3.385c0.081,0.045,0.173,0.066,0.265,0.066c0.101,0,0.198-0.029,0.283-0.082
		c0.169-0.105,0.27-0.293,0.265-0.49v-5.658C28.771,28.906,28.658,28.709,28.473,28.609z M27.621,33.826l-5.242-2.783V26.68
		l5.242,2.783V33.826z"/>
</g>
</svg>
